<svg width="92" height="92" viewBox="0 0 92 92" fill="none" xmlns="http://www.w3.org/2000/svg">
<path fill-rule="evenodd" clip-rule="evenodd" d="M8.625 23C8.625 19.95 9.8366 17.0249 11.9933 14.8683C14.1499 12.7116 17.075 11.5 20.125 11.5H71.875C74.925 11.5 77.8501 12.7116 80.0067 14.8683C82.1634 17.0249 83.375 19.95 83.375 23V69C83.375 72.05 82.1634 74.9751 80.0067 77.1317C77.8501 79.2884 74.925 80.5 71.875 80.5H20.125C17.075 80.5 14.1499 79.2884 11.9933 77.1317C9.8366 74.9751 8.625 72.05 8.625 69V23ZM23.8433 26.7183C24.3824 26.1799 25.1131 25.8775 25.875 25.8775C26.6369 25.8775 27.3676 26.1799 27.9067 26.7183L36.5317 35.3433C37.0701 35.8824 37.3725 36.6131 37.3725 37.375C37.3725 38.1369 37.0701 38.8676 36.5317 39.4067L27.9067 48.0317C27.3617 48.5395 26.6408 48.816 25.896 48.8028C25.1512 48.7897 24.4405 48.488 23.9138 47.9612C23.387 47.4345 23.0853 46.7238 23.0722 45.979C23.059 45.2342 23.3355 44.5133 23.8433 43.9683L30.4367 37.375L23.8433 30.7817C23.3049 30.2426 23.0025 29.5119 23.0025 28.75C23.0025 27.9881 23.3049 27.2574 23.8433 26.7183ZM40.25 43.125C39.4875 43.125 38.7562 43.4279 38.2171 43.9671C37.6779 44.5062 37.375 45.2375 37.375 46C37.375 46.7625 37.6779 47.4938 38.2171 48.0329C38.7562 48.5721 39.4875 48.875 40.25 48.875H51.75C52.5125 48.875 53.2438 48.5721 53.7829 48.0329C54.3221 47.4938 54.625 46.7625 54.625 46C54.625 45.2375 54.3221 44.5062 53.7829 43.9671C53.2438 43.4279 52.5125 43.125 51.75 43.125H40.25Z" fill="white"/>
</svg>
